<?xml version="1.0" standalone="no"?>
<!DOCTYPE svg PUBLIC "-//W3C//DTD SVG 20010904//EN"
 "http://www.w3.org/TR/2001/REC-SVG-20010904/DTD/svg10.dtd">
<svg version="1.0" xmlns="http://www.w3.org/2000/svg"
 width="512.000000pt" height="512.000000pt" viewBox="0 0 512.000000 512.000000"
 preserveAspectRatio="xMidYMid meet">
<metadata>
Created by potrace 1.11, written by Peter Selinger 2001-2013
</metadata>
<g transform="translate(0.000000,512.000000) scale(0.100000,-0.100000)"
fill="#000000" stroke="none">
<path d="M1670 5097 c-47 -31 -72 -78 -72 -135 0 -42 27 -101 227 -502 125
-250 231 -457 235 -460 4 -3 -170 -642 -387 -1420 -217 -778 -394 -1434 -395
-1457 -1 -23 5 -55 12 -73 9 -21 190 -182 594 -529 320 -274 591 -503 603
-509 12 -7 45 -12 73 -12 28 0 61 5 73 12 46 24 1183 1007 1195 1032 24 54 12
117 -90 484 -83 299 -99 366 -87 373 8 5 189 129 404 276 280 193 394 277 408
301 24 40 25 117 4 158 -9 16 -324 337 -701 713 l-684 684 219 439 c202 404
219 442 219 490 0 63 -24 109 -72 138 -32 19 -52 20 -889 20 l-856 0 -33 -23z"/>
</g>
</svg>
